<svg viewBox = "0 0 512 512" width="512" height="512" xmlns="http://www.w3.org/2000/svg"><g transform="matrix(1 0 0 1 256 256)" clip-path="url(#CLIPPATH_3681)"  ><clipPath id="CLIPPATH_3681" ><rect transform="matrix(1 0 0 1 0 0)" id="clip0_307_168976" x="-256" y="-256" rx="0" ry="0" width="512" height="512" /></clipPath><path style="stroke: none; stroke-width: 1; stroke-dasharray: none; stroke-linecap: butt; stroke-dashoffset: 0; stroke-linejoin: miter; stroke-miterlimit: 4; fill: rgb(255,255,255); fill-rule: nonzero; opacity: 1;"  transform=" translate(-256, -256)" d="M 105 447 L 105 467 C 105 491.813 125.187 512 150 512 L 362 512 C 386.813 512 407 491.813 407 467 L 407 447 L 105 447 Z M 406.351 137.846 C 399.235 60.645 334.521 0 256 0 C 177.479 0 112.765 60.645 105.649 137.846 C 46.22 144.899 0 195.197 0 256 C 0 316.579 45.887 366.73 105 374.075 L 105 417 L 187.486 417 L 137.706 260.548 C 135.194 252.654 139.558 244.218 147.452 241.706 C 155.344 239.196 163.782 243.558 166.294 251.452 L 218.968 417 L 241 417 L 241 176 C 241 167.716 247.716 161 256 161 C 264.284 161 271 167.716 271 176 L 271 417 L 293.032 417 L 345.706 251.452 C 348.218 243.557 356.655 239.194 364.548 241.706 C 372.443 244.218 376.806 252.654 374.294 260.548 L 324.514 417 L 407 417 L 407 374.075 C 466.113 366.73 512 316.579 512 256 C 512 195.197 465.78 144.899 406.351 137.846 Z" stroke-linecap="round" /></g></svg>